#tb 0: 1/25
#media_type 0: video
#codec_id 0: rawvideo
#dimensions 0: 176x288
#sar 0: 0/1
0,          0,          0,        1,   152064, 0xb433c60f
0,          1,          1,        1,   152064, 0xc3a4a9f3
0,          2,          2,        1,   152064, 0x98978d39
0,          3,          3,        1,   152064, 0x17913e24
0,          4,          4,        1,   152064, 0x5e9b67e1
